<?xml version="1.0" encoding="UTF-8" standalone="no"?>
<!-- Created with Inkscape (http://www.inkscape.org/) -->

<svg
   xmlns:dc="http://purl.org/dc/elements/1.1/"
   xmlns:cc="http://creativecommons.org/ns#"
   xmlns:rdf="http://www.w3.org/1999/02/22-rdf-syntax-ns#"
   xmlns:svg="http://www.w3.org/2000/svg"
   xmlns="http://www.w3.org/2000/svg"
   xmlns:sodipodi="http://sodipodi.sourceforge.net/DTD/sodipodi-0.dtd"
   xmlns:inkscape="http://www.inkscape.org/namespaces/inkscape"
   width="639.625"
   height="295.01074"
   id="svg2"
   version="1.1"
   inkscape:version="0.48.4 r9939"
   sodipodi:docname="sagacity-attractor.svg">
  <defs
     id="defs4">
    <inkscape:path-effect
       effect="knot"
       id="path-effect3938"
       is_visible="true"
       interruption_width="3"
       prop_to_stroke_width="true"
       add_stroke_width="true"
       add_other_stroke_width="true"
       switcher_size="15"
       crossing_points_vector="363.97222 | 391.89521 | 0 | 0 | 0 | 1 | 2.9853886 | 11.498163 | 1" />
    <inkscape:path-effect
       effect="envelope"
       id="path-effect3932"
       is_visible="true"
       yy="true"
       xx="true"
       bendpath1="m 69.6156,335.53189 529.0171,-3.53553"
       bendpath2="m 600.14793,335.53189 -4.54569,191.02633"
       bendpath3="m 69.6156,539.18513 c 220.63679,-6.42293 410.55063,-8.33982 530.53233,0"
       bendpath4="m 69.6156,335.53189 0,203.65324"
       bendpath1-nodetypes="cc"
       bendpath2-nodetypes="cc"
       bendpath3-nodetypes="cc" />
    <inkscape:path-effect
       effect="bend_path"
       id="path-effect3930"
       is_visible="true"
       bendpath="M 46.401315,459.50136 576.42857,456.4709"
       prop_scale="1"
       scale_y_rel="false"
       vertical="false"
       bendpath-nodetypes="cc" />
  </defs>
  <sodipodi:namedview
     id="base"
     pagecolor="#ffffff"
     bordercolor="#666666"
     borderopacity="1.0"
     inkscape:pageopacity="0.0"
     inkscape:pageshadow="2"
     inkscape:zoom="1.979899"
     inkscape:cx="405.6466"
     inkscape:cy="123.09294"
     inkscape:document-units="px"
     inkscape:current-layer="layer1"
     showgrid="false"
     inkscape:window-width="2878"
     inkscape:window-height="898"
     inkscape:window-x="0"
     inkscape:window-y="900"
     inkscape:window-maximized="0"
     fit-margin-top="0"
     fit-margin-left="0"
     fit-margin-right="0"
     fit-margin-bottom="0" />
  <metadata
     id="metadata7">
    <rdf:RDF>
      <cc:Work
         rdf:about="">
        <dc:format>image/svg+xml</dc:format>
        <dc:type
           rdf:resource="http://purl.org/dc/dcmitype/StillImage" />
        <dc:title />
      </cc:Work>
    </rdf:RDF>
  </metadata>
  <g
     inkscape:label="Layer 1"
     inkscape:groupmode="layer"
     id="layer1"
     transform="translate(12.9375,-331.5)">
    <path
       style="fill:none;stroke:#000000;stroke-width:4.69999981;stroke-linecap:butt;stroke-linejoin:miter;stroke-miterlimit:4;stroke-opacity:1;stroke-dasharray:none"
       d="m -12.843023,534.32121 c 90.838473,-3.28913 168.795693,0.96051 257.486833,-22.542 39.17779,-9.57618 61.08148,-46.92449 79.78515,-79.44792 17.07499,-27.37376 41.48498,-50.10209 67.5914,-68.91075 26.54902,-14.3099 59.83359,-18.11919 88.77526,-10.01727 30.40323,15.7896 7.73433,57.52475 29.27123,78.4244 21.42719,9.89692 61.58507,-12.87676 63.08476,25.7649 -3.45036,26.91238 19.39478,56.02553 1.538,79.79143 -19.38828,20.12963 -48.7694,13.56139 -73.62262,15.48764 -37.40306,0.80914 -66.42882,-26.8831 -91.46451,-51.21437 -35.03429,-36.64068 -58.29542,-83.13433 -84.0018,-129.06727 -24.15989,-32.48799 -47.03557,-32.63002 -80.3659,-12.69947 -27.18125,17.56398 -4.38314,64.21785 -38.26159,75.17986 -24.7341,6.0442 -50.69279,3.51961 -75.99193,5.39509 -54.617375,1.47547 -86.53165,0.98861 -141.161839,1.18241"
       id="path2985"
       inkscape:connector-curvature="0"
       sodipodi:nodetypes="ccccccccccccccc" />
    <path
       style="fill:none;stroke:#ff1300;stroke-width:2.47288561;stroke-linecap:butt;stroke-linejoin:miter;stroke-miterlimit:4;stroke-opacity:1;stroke-dasharray:2.47288741, 7.41866243;stroke-dashoffset:0"
       d="m -10.222194,588.80775 c 78.259742,-0.76549 157.818834,2.13783 234.532894,-15.82467 32.90344,-9.47657 65.33486,-23.30514 99.76511,-25.63853 17.46913,14.89701 40.44818,17.50445 61.31337,24.81557 20.08657,16.67734 36.54342,-10.72011 56.31728,5.45167 15.07318,11.41041 29.45335,12.5769 44.39599,0.66224 20.61136,-6.37377 19.3081,39.58231 38.33881,15.36916 18.15831,-22.58275 40.84729,-1.15527 43.93507,20.61627 12.08504,6.80724 32.53136,-2.80379 41.25139,9.7259"
       id="path2985-7-0"
       inkscape:connector-curvature="0" />
    <path
       style="fill:none;stroke:#e46b00;stroke-width:2.29999995;stroke-linecap:round;stroke-linejoin:miter;stroke-miterlimit:4;stroke-opacity:1;stroke-dasharray:2.29999995, 6.89999986;stroke-dashoffset:0"
       d="m -11.163257,521.64698 c 62.773252,-0.0757 195.070127,-7.23968 256.105387,-22.06718 8.34195,1.88841 32.51905,-11.30028 53.3356,-38.66695 26.44588,-34.76732 51.8094,-87.14583 79.87065,-102.90788 7.37435,-4.14219 41.86387,-18.76849 64.2457,-21.23525 10.90806,-1.20221 66.07648,4.89839 70.00208,25.85287 0.1891,1.0094 12.12897,31.27648 27.5186,42.66405 15.00487,11.10288 38.42698,17.98817 40.30195,21.33899 1.47144,2.62966 -0.7094,21.72805 12.31789,25.9372 9.2852,3.00007 5.37384,14.58802 2.23556,27.81679 -2.10455,8.87129 11.15298,8.10234 17.0672,14.69416 7.31359,8.15153 -12.0833,21.84122 -7.23018,27.69031 3.64015,4.3872 9.46185,9.77264 20.96456,9.94476"
       id="path2985-7-0-0"
       inkscape:connector-curvature="0"
       sodipodi:nodetypes="ccssssssssssc" />
    <path
       style="fill:none;stroke:#f0f300;stroke-width:2.29999995;stroke-linecap:butt;stroke-linejoin:miter;stroke-miterlimit:4;stroke-opacity:1;stroke-dasharray:2.3, 4.6;stroke-dashoffset:0"
       d="m -11.732289,547.6357 c 24.2342,-0.15337 122.416449,-1.15624 147.632279,-2.09725 17.94613,0.1827 104.3865,-12.85332 120.20257,-20.98846 17.34689,-4.79884 23.93021,-15.60774 39.38747,-30.8468 11.39167,-12.62197 19.56197,-26.86122 27.15845,-42.22524 8.62408,-17.53869 56.76422,-22.28111 69.04766,-35.09298 15.56036,-14.77509 -4.27705,-37.63832 16.76667,-44.10642 19.68524,-5.7667 32.02422,-14.24085 52.89716,-13.6608 23.10247,2.9604 35.52983,47.98457 31.46982,67.83315 0.1524,14.9338 14.55558,9.58349 27.81507,19.17662 13.70401,7.01223 22.29066,-0.94325 34.28614,-0.0988 15.81491,1.12051 8.20596,41.67233 5.85249,44.81921 0.0836,17.99519 3.80241,16.01331 7.26026,32.88053 5.99652,16.53508 -13.02158,-1.85471 -27.54831,7.77242 -15.83457,8.65451 -20.0883,10.44747 -38.54609,11.27767 -10.35159,0.12424 -18.34925,-0.23794 -28.3811,-2.33431 -19.75484,-5.51971 -23.85603,-14.58049 -38.31973,-26.9514 -13.74304,-12.44468 10.27122,-15.677 -2.29676,-32.16794 -10.56352,-12.12807 -39.14127,-22.47671 -50.84138,-42.00576 -6.87156,-11.263 20.93778,13.01508 13.95208,-3.9857 -7.52586,-14.57692 14.99323,2.32304 -9.35379,-3.38712 -17.87576,-3.30428 47.17201,17.4556 30.10604,25.94796 -16.21622,8.19034 13.454,-36.17322 -12.1684,-24.07279 -36.04672,-25.86614 35.92932,-20.31596 24.37075,-17.27361 -46.57638,3.75385 49.76414,53.37146 12.51653,35.96872"
       id="path2985-6"
       inkscape:connector-curvature="0"
       sodipodi:nodetypes="ccccccccccccccccccccccccc" />
    <path
       style="fill:none;stroke:#1924ef;stroke-width:2.29999995;stroke-linecap:round;stroke-linejoin:miter;stroke-miterlimit:4;stroke-opacity:1;stroke-dasharray:2.29999995, 9.19999981;stroke-dashoffset:1.14999998"
       d="m -10.282616,568.41087 c 24.234202,-0.15337 106.759079,2.88437 131.974906,1.94336 17.94613,0.1827 104.3865,-12.85332 120.20257,-20.98846 17.34689,-4.79884 23.93021,-15.60774 39.38747,-30.8468 11.39167,-12.62197 19.56197,-26.86122 27.15845,-42.22524 8.62408,-17.53869 24.94441,-31.37248 37.22785,-44.18435 15.56036,-14.77509 21.22187,-47.63832 42.26559,-54.10642 19.68524,-5.7667 61.61451,-18.07225 82.48745,-17.4922 23.10247,2.9604 22.70423,35.43381 18.64422,55.28239 0.1524,14.9338 21.25464,25.28726 34.51413,34.88039 13.70401,7.01223 16.76456,1.65391 28.76004,2.49837 15.81491,1.12051 16.17066,35.68302 19.09216,46.74235 0.0836,17.99519 7.87455,26.97706 11.3324,43.84428 5.99652,16.53508 -38.91969,9.50207 -53.44642,19.1292 -15.83457,8.65451 -26.65429,-3.18959 -45.11208,-2.35939 -10.35159,0.12424 -18.34925,-5.79378 -28.3811,-7.89015 -19.75484,-5.51971 -18.80527,-8.51958 -33.26897,-20.89049 -13.74304,-12.44468 -20.53844,-15.17192 -33.10642,-31.66286 -10.56352,-12.12807 -17.42298,-20.96148 -29.12309,-40.49053 -6.87156,-11.263 -16.52453,-28.13069 -23.51023,-45.13147 -7.52586,-14.57692 -17.79648,-47.97538 -42.1435,-53.68554 -19.89607,1.74648 -26.97702,0.68656 -44.04299,9.17892 -16.21622,8.19034 -4.05472,57.95225 -29.67712,70.05268 -22.25121,19.06207 -44.22552,10.19347 -55.78409,13.23582 -39.56171,3.1885 -89.041692,16.70703 -122.983541,16.88809 -2.752285,0.0147 -5.4655,-4.37884 -8.136309,-7.49482 -1.499863,-1.74986 -8.395508,4.51649 -13.863248,5.8885 -3.36564,0.84453 -8.765594,-10.18156 -15.2567475,-11.64676 -5.24611903,-1.18417 -13.463404,14.29204 -14.575404,14.13354"
       id="path2985-6-0"
       inkscape:connector-curvature="0"
       sodipodi:nodetypes="ccccccccccccccccccccccccssssc" />
    <path
       style="fill:none;stroke:#19e20d;stroke-width:2.29999995;stroke-linecap:round;stroke-linejoin:miter;stroke-miterlimit:4;stroke-opacity:1;stroke-dasharray:2.29999995, 9.19999981;stroke-dashoffset:1.14999998"
       d="m -10.989698,510.78253 c 24.234202,-0.15337 118.880908,-4.1867 144.096738,-5.12771 17.94613,0.1827 97.31543,-8.81271 113.1315,-16.94785 17.34689,-4.79884 30.4962,-11.56713 45.95346,-26.80619 11.39167,-12.62197 14.51121,-11.70893 22.10769,-27.07295 8.62408,-17.53869 41.10685,-52.58568 53.39029,-65.39755 15.56036,-14.77509 23.24217,-25.92004 44.28589,-32.38814 19.68524,-5.7667 52.52314,-4.43519 73.39608,-3.85514 23.10247,2.9604 28.76515,50.5861 24.70514,70.43468 0.1524,14.9338 12.66834,9.12482 25.92783,18.71795 13.70401,7.01223 15.24933,5.18944 27.24481,6.0339 15.81491,1.12051 16.17066,35.68302 19.09216,46.74235 0.0836,17.99519 7.87455,26.97706 11.3324,43.84428 5.99652,16.53508 -38.91969,9.50207 -53.44642,19.1292 -15.83457,8.65451 -26.65429,-3.18959 -45.11208,-2.35939 -10.35159,0.12424 -18.34925,-5.79378 -28.3811,-7.89015 -19.75484,-5.51971 -18.80527,-8.51958 -33.26897,-20.89049 -13.74304,-12.44468 -20.53844,-15.17192 -33.10642,-31.66286 -10.56352,-12.12807 -17.42298,-20.96148 -29.12309,-40.49053 -6.87156,-11.263 -16.52453,-28.13069 -23.51023,-45.13147 -7.52586,-14.57692 -25.8777,-43.42969 -50.22472,-49.13985 -19.89607,1.74648 -25.96687,-4.86928 -43.03284,3.62308 -7.38929,3.73211 -27.67056,16.4191 -32.38941,27.52066 -5.63693,13.26146 -1.01841,38.97588 -14.96538,45.56248 -22.25121,19.06207 -19.47678,8.17316 -31.03535,11.21551 -81.112277,1.1183 -103.90823,10.12462 -122.028478,-4.24379 -1.49986,-1.74986 -14.961501,-6.09011 -20.429241,-4.7181 -3.36564,0.84453 -14.430732,12.5897 -19.29735,8.05121 -25.421864,-23.7078 -20.0294021,-22.57852 -21.1414021,-22.73702"
       id="path2985-6-0-2"
       inkscape:connector-curvature="0"
       sodipodi:nodetypes="ccccccccccccccccccccccscccssc" />
  </g>
</svg>
