<?xml version="1.0" encoding="UTF-8" standalone="no"?>
<!-- Created with Inkscape (http://www.inkscape.org/) -->

<svg
   xmlns:dc="http://purl.org/dc/elements/1.1/"
   xmlns:cc="http://creativecommons.org/ns#"
   xmlns:rdf="http://www.w3.org/1999/02/22-rdf-syntax-ns#"
   xmlns:svg="http://www.w3.org/2000/svg"
   xmlns="http://www.w3.org/2000/svg"
   xmlns:sodipodi="http://sodipodi.sourceforge.net/DTD/sodipodi-0.dtd"
   xmlns:inkscape="http://www.inkscape.org/namespaces/inkscape"
   width="639.625"
   height="295.01074"
   id="svg2"
   version="1.1"
   inkscape:version="0.48.4 r9939"
   sodipodi:docname="sagacity-attractor-bw.svg">
  <defs
     id="defs4">
    <inkscape:path-effect
       effect="knot"
       id="path-effect3938"
       is_visible="true"
       interruption_width="3"
       prop_to_stroke_width="true"
       add_stroke_width="true"
       add_other_stroke_width="true"
       switcher_size="15"
       crossing_points_vector="363.97222 | 391.89521 | 0 | 0 | 0 | 1 | 2.9853886 | 11.498163 | 1" />
    <inkscape:path-effect
       effect="envelope"
       id="path-effect3932"
       is_visible="true"
       yy="true"
       xx="true"
       bendpath1="m 69.6156,335.53189 529.0171,-3.53553"
       bendpath2="m 600.14793,335.53189 -4.54569,191.02633"
       bendpath3="m 69.6156,539.18513 c 220.63679,-6.42293 410.55063,-8.33982 530.53233,0"
       bendpath4="m 69.6156,335.53189 0,203.65324"
       bendpath1-nodetypes="cc"
       bendpath2-nodetypes="cc"
       bendpath3-nodetypes="cc" />
    <inkscape:path-effect
       effect="bend_path"
       id="path-effect3930"
       is_visible="true"
       bendpath="M 46.401315,459.50136 576.42857,456.4709"
       prop_scale="1"
       scale_y_rel="false"
       vertical="false"
       bendpath-nodetypes="cc" />
  </defs>
  <sodipodi:namedview
     id="base"
     pagecolor="#ffffff"
     bordercolor="#666666"
     borderopacity="1.0"
     inkscape:pageopacity="0.0"
     inkscape:pageshadow="2"
     inkscape:zoom="1.979899"
     inkscape:cx="335.66933"
     inkscape:cy="114.5143"
     inkscape:document-units="px"
     inkscape:current-layer="layer1"
     showgrid="false"
     inkscape:window-width="2878"
     inkscape:window-height="1798"
     inkscape:window-x="0"
     inkscape:window-y="0"
     inkscape:window-maximized="0"
     fit-margin-top="0"
     fit-margin-left="0"
     fit-margin-right="0"
     fit-margin-bottom="0" />
  <metadata
     id="metadata7">
    <rdf:RDF>
      <cc:Work
         rdf:about="">
        <dc:format>image/svg+xml</dc:format>
        <dc:type
           rdf:resource="http://purl.org/dc/dcmitype/StillImage" />
        <dc:title></dc:title>
      </cc:Work>
    </rdf:RDF>
  </metadata>
  <g
     inkscape:label="Layer 1"
     inkscape:groupmode="layer"
     id="layer1"
     transform="translate(12.9375,-331.5)">
    <path
       style="fill:none;stroke:#000000;stroke-width:4.69999981;stroke-linecap:butt;stroke-linejoin:miter;stroke-miterlimit:4;stroke-opacity:1;stroke-dasharray:none"
       d="m -12.843023,534.32121 c 90.838473,-3.28913 168.795693,0.96051 257.486833,-22.542 39.17779,-9.57618 61.08148,-46.92449 79.78515,-79.44792 17.07499,-27.37376 41.48498,-50.10209 67.5914,-68.91075 26.54902,-14.3099 59.83359,-18.11919 88.77526,-10.01727 30.40323,15.7896 7.73433,57.52475 29.27123,78.4244 21.42719,9.89692 61.58507,-12.87676 63.08476,25.7649 -3.45036,26.91238 19.39478,56.02553 1.538,79.79143 -19.38828,20.12963 -48.7694,13.56139 -73.62262,15.48764 -37.40306,0.80914 -66.42882,-26.8831 -91.46451,-51.21437 -35.03429,-36.64068 -58.29542,-83.13433 -84.0018,-129.06727 -24.15989,-32.48799 -47.03557,-32.63002 -80.3659,-12.69947 -27.18125,17.56398 -4.38314,64.21785 -38.26159,75.17986 -24.7341,6.0442 -50.69279,3.51961 -75.99193,5.39509 -54.617375,1.47547 -86.53165,0.98861 -141.161839,1.18241"
       id="path2985"
       inkscape:connector-curvature="0"
       sodipodi:nodetypes="ccccccccccccccc" />
    <path
       style="fill:none;stroke:#808080;stroke-width:2.47288561;stroke-linecap:butt;stroke-linejoin:miter;stroke-miterlimit:4;stroke-opacity:1;stroke-dasharray:2.47288741, 7.41866243;stroke-dashoffset:0"
       d="m -10.222194,588.80775 c 78.259742,-0.76549 157.818834,2.13783 234.532894,-15.82467 32.90344,-9.47657 65.33486,-23.30514 99.76511,-25.63853 17.46913,14.89701 40.44818,17.50445 61.31337,24.81557 20.08657,16.67734 36.54342,-10.72011 56.31728,5.45167 15.07318,11.41041 29.45335,12.5769 44.39599,0.66224 20.61136,-6.37377 19.3081,39.58231 38.33881,15.36916 3.18386,-3.95963 6.507,-6.56623 9.83936,-8.05517 15.67286,-7.00286 31.54934,10.7173 34.09571,28.67144 12.08504,6.80724 30.00598,-5.32917 38.72601,7.20052"
       id="path2985-7-0"
       inkscape:connector-curvature="0"
       sodipodi:nodetypes="cccccccscc" />
    <path
       style="fill:none;stroke:#727272;stroke-width:2.29999995;stroke-linecap:round;stroke-linejoin:miter;stroke-miterlimit:4;stroke-opacity:1;stroke-dasharray:2.29999995, 6.89999986;stroke-dashoffset:0"
       d="m -11.163257,521.64698 c 62.773252,-0.0757 195.070127,-7.23968 256.105387,-22.06718 8.34195,1.88841 32.51905,-11.30028 53.3356,-38.66695 26.44588,-34.76732 51.8094,-87.14583 79.87065,-102.90788 7.37435,-4.14219 41.86387,-18.76849 64.2457,-21.23525 10.90806,-1.20221 66.07648,4.89839 70.00208,25.85287 0.1891,1.0094 12.12898,31.27647 27.5186,42.66405 10.29994,7.62146 23.05084,16.28605 31.5912,20.15381 3.90117,1.76676 6.6076,3.16496 7.19552,4.21564 1.47144,2.62966 2.21154,15.8886 6.25698,28.96766 1.70905,5.52545 2.34338,17.61848 8.29647,24.78633 5.82526,7.01393 11.15298,8.10234 17.0672,14.69416 7.31359,8.15153 -12.0833,21.84122 -7.23018,27.69031 3.64015,4.3872 8.95677,11.28787 20.45948,11.45999"
       id="path2985-7-0-0"
       inkscape:connector-curvature="0"
       sodipodi:nodetypes="ccsssssssssssc" />
    <path
       style="fill:none;stroke:#7a7a7a;stroke-width:2.29999995;stroke-linecap:butt;stroke-linejoin:miter;stroke-miterlimit:4;stroke-opacity:1;stroke-dasharray:2.3, 4.6;stroke-dashoffset:0"
       d="m -14.762747,542.07986 c 55.914975,-1.15833 115.026137,-0.65178 170.816327,-4.69544 37.39861,-5.76409 76.51121,-1.75891 111.34781,-17.53576 25.04783,-18.19005 43.97667,-43.8571 57.14429,-71.72423 19.23778,-26.50061 49.58962,-42.30792 68.83268,-68.85663 18.92667,-9.27396 39.59167,-16.98438 60.52327,-20.46613 22.80083,-2.88623 33.25238,22.83615 37.50649,40.98702 3.91536,16.94371 -4.19871,41.68974 21.75913,41.78655 15.23895,17.31222 52.69837,-11.28983 51.47201,21.63206 -3.5371,22.21652 -4.7075,43.43663 4.53825,64.70764 -13.86595,-0.005 -32.69085,1.78583 -46.97141,11.65889 -19.91532,8.12677 -37.98781,-6.99241 -58.1246,-6.04471 -24.97357,-3.97229 -42.01421,19.41804 -66.37156,19.24377 -28.13111,2.94756 -41.91682,12.27629 -54.1142,-12.98968 -4.79613,-38.18395 93.16065,-27.53016 12.24492,-36.28501 8.53337,8.38409 -5.62951,15.91491 -6.1876,3.43693 13.81598,-24.129 49.0197,41.45354 27.57274,46.50555 1.7314,-8.58076 5.44561,-29.13482 -8.91344,-19.72357 -24.9255,-20.6591 13.90758,-43.5459 22.30322,-12.92663 0.76042,1.71361 0.0941,4.47832 -1.97307,4.87065"
       id="path2985-6"
       inkscape:connector-curvature="0"
       sodipodi:nodetypes="cccccccccccccccccccc" />
    <path
       style="fill:none;stroke:#848484;stroke-width:2.29999995;stroke-linecap:round;stroke-linejoin:miter;stroke-miterlimit:4;stroke-opacity:1;stroke-dasharray:2.29999995, 9.19999981;stroke-dashoffset:1.14999998"
       d="m -10.282616,568.41087 c 62.671904,-0.57507 125.984286,7.65892 188.032896,-4.64697 28.49788,-6.16126 60.98895,-6.78754 84.54693,-25.90645 21.3435,-18.83747 37.63575,-42.31694 49.71545,-67.9723 14.35505,-23.35457 40.31785,-37.58559 50.51188,-63.82959 8.05182,-25.82152 34.4258,-31.84076 57.5113,-37.01591 19.71271,-3.15787 42.21138,-14.48065 61.03315,-4.02873 21.39737,17.37345 -1.84967,48.03911 15.4882,65.85187 15.4757,13.59739 33.84643,28.34748 55.78287,22.30912 20.1811,8.92081 15.58209,37.59071 19.8727,56.02541 -0.0394,14.58659 23.42804,40.18397 0.10656,45.34181 -23.52567,-2.02488 -44.45417,15.50462 -67.21372,9.3995 -20.67142,-3.72061 -41.17879,-6.76554 -60.77897,-15.15354 -17.55891,-11.38617 -32.80199,-26.63726 -48.33249,-40.72094 -30.64037,-33.44667 -51.42101,-74.23199 -69.39994,-115.488 -8.81275,-26.92354 -36.70195,-38.05734 -62.19453,-28.16014 -24.27943,2.51517 -23.35511,29.16262 -26.49118,47.511 -2.8664,26.30399 -31.20758,42.24962 -55.87701,40.81899 -47.17223,-0.22951 -92.723125,16.26476 -139.846411,17.38682 -8.759334,-17.21789 -24.328245,8.54927 -32.6072754,-10.69638 -8.68444196,-8.34671 -14.0638317,6.90938 -19.2244331,11.57684"
       id="path2985-6-0"
       inkscape:connector-curvature="0" />
    <path
       style="fill:none;stroke:#787878;stroke-width:2.29999995;stroke-linecap:round;stroke-linejoin:miter;stroke-miterlimit:4;stroke-opacity:1;stroke-dasharray:2.29999995, 9.19999981;stroke-dashoffset:1.14999998"
       d="m -10.989698,510.78253 c 24.234202,-0.15337 118.880908,-4.1867 144.096738,-5.12771 17.94613,0.1827 97.31543,-8.81271 113.1315,-16.94785 17.34689,-4.79884 30.4962,-11.56713 45.95346,-26.80619 11.39167,-12.62197 14.51121,-11.70893 22.10769,-27.07295 8.62408,-17.53869 41.10685,-52.58568 53.39029,-65.39755 15.56036,-14.77509 23.24217,-25.92004 44.28589,-32.38814 19.68524,-5.7667 52.52314,-4.43519 73.39608,-3.85514 23.10247,2.9604 28.76515,50.5861 24.70514,70.43468 0.1524,14.9338 12.66834,9.12482 25.92783,18.71795 13.70401,7.01223 15.24933,5.18944 27.24481,6.0339 15.81491,1.12051 16.17066,35.68302 19.09216,46.74235 0.0836,17.99519 7.87455,26.97706 11.3324,43.84428 5.99652,16.53508 -38.91969,9.50207 -53.44642,19.1292 -15.83457,8.65451 -26.65429,-3.18959 -45.11208,-2.35939 -10.35159,0.12424 -18.34925,-5.79378 -28.3811,-7.89015 -19.75484,-5.51971 -18.80527,-8.51958 -33.26897,-20.89049 -13.74304,-12.44468 -20.53844,-15.17192 -33.10642,-31.66286 -10.56352,-12.12807 -17.42298,-20.96148 -29.12309,-40.49053 -6.87156,-11.263 -16.52453,-28.13069 -23.51023,-45.13147 -7.52586,-14.57692 -25.8777,-43.42969 -50.22472,-49.13985 -19.89607,1.74648 -25.96687,-4.86928 -43.03284,3.62308 -7.38929,3.73211 -27.67056,16.4191 -32.38941,27.52066 -5.63693,13.26146 -1.01841,38.97588 -14.96538,45.56248 -22.25121,19.06207 -19.47678,8.17316 -31.03535,11.21551 -81.112277,1.1183 -103.90823,10.12462 -122.028478,-4.24379 -1.49986,-1.74986 -14.961501,-6.09011 -20.429241,-4.7181 -3.36564,0.84453 -8.369817,7.53894 -20.307503,4.51568 -33.697222,-8.53394 -29.120774,-13.99223 -24.676936,-15.16088"
       id="path2985-6-0-2"
       inkscape:connector-curvature="0"
       sodipodi:nodetypes="ccccccccccccccccccccccscccssc" />
  </g>
</svg>
